<svg width="760" height="192" viewBox="0 0 760 192" fill="none" xmlns="http://www.w3.org/2000/svg">
<rect width="760" height="192" rx="24" fill="white"/>
<path d="M384.503 86.8357C391.338 86.8357 395.332 92.1749 395.332 98.81C395.332 105.46 391.338 110.784 384.503 110.784C381.182 110.784 378.76 109.379 377.54 107.818V117.999H371.155V87.3665H377.043V90.161C378.519 88.069 381.182 86.8357 384.503 86.8357ZM328.858 80.3915C337.692 80.3915 342.166 86.3887 342.969 91.6012H336.178C335.375 88.4625 332.472 86.2766 328.801 86.2766C323.925 86.2766 320.414 90.144 320.414 95.6368C320.414 101.074 323.925 104.941 328.801 104.941C332.472 104.941 335.375 102.755 336.178 99.6161H342.969C342.166 104.829 337.692 110.826 328.858 110.826C320.082 110.826 314.001 104.044 314.001 95.6368C314.001 87.1734 320.082 80.3915 328.858 80.3915ZM355.002 86.8357C358.323 86.8357 360.97 88.0534 362.462 90.161V87.3665H368.35V110.253H362.462V107.459C360.986 109.551 358.323 110.784 355.002 110.784C348.167 110.784 344.172 105.445 344.172 98.81C344.172 92.1593 348.167 86.8357 355.002 86.8357ZM407.673 86.8357C410.994 86.8357 413.641 88.0534 415.133 90.161V87.3665H421.021V110.253H415.133V107.459C413.657 109.551 410.994 110.784 407.673 110.784C400.838 110.784 396.844 105.445 396.844 98.81C396.844 92.1593 400.838 86.8357 407.673 86.8357ZM434.639 86.8357C441.955 86.8357 445.42 91.8627 445.869 95.75H439.308C438.81 93.7828 436.933 92.3467 434.591 92.3467C431.174 92.3467 429.201 94.9694 429.201 98.81C429.201 102.65 431.174 105.273 434.591 105.273C436.933 105.273 438.81 103.837 439.308 101.87H445.869C445.42 105.757 441.955 110.784 434.639 110.784C427.805 110.784 422.831 105.632 422.831 98.81C422.831 91.9876 427.805 86.8357 434.639 86.8357ZM478.864 86.8357C486.404 86.8357 491.218 92.2999 491.218 98.81C491.218 105.32 486.404 110.784 478.864 110.784C471.324 110.784 466.511 105.32 466.511 98.81C466.511 92.2999 471.324 86.8357 478.864 86.8357ZM505.236 87.1326C505.458 87.1326 505.998 87.1794 505.998 87.1794V93.0026C505.998 93.0026 505.332 92.8777 504.76 92.8777C501.082 92.8777 499.162 94.673 499.162 98.8725V110.285H492.85V87.3511H498.67V90.3174C499.51 88.9591 501.288 87.1326 505.236 87.1326ZM462.663 81.6698V87.3524H467.573V92.4107H462.663V110.271H456.279V81.6698H462.663ZM453.424 87.3513V110.254H447.038V87.3513H453.424ZM356.349 92.2999C352.804 92.2999 350.558 95.0944 350.558 98.81C350.558 102.525 352.804 105.32 356.349 105.32C359.895 105.32 362.141 102.525 362.141 98.81C362.157 95.0944 359.911 92.2999 356.349 92.2999ZM383.155 92.2999C379.61 92.2999 377.364 95.0944 377.364 98.81C377.348 102.525 379.594 105.32 383.155 105.32C386.701 105.32 388.947 102.525 388.947 98.81C388.947 95.0944 386.701 92.2999 383.155 92.2999ZM409.02 92.2999C405.475 92.2999 403.229 95.0944 403.229 98.81C403.229 102.525 405.475 105.32 409.02 105.32C412.566 105.32 414.812 102.525 414.812 98.81C414.828 95.0944 412.582 92.2999 409.02 92.2999ZM478.864 92.2999C475.494 92.2999 472.896 94.704 472.896 98.81C472.896 102.916 475.494 105.32 478.864 105.32C482.234 105.32 484.832 102.916 484.832 98.81C484.832 94.704 482.234 92.2999 478.864 92.2999ZM450.231 77.9999C452.477 77.9999 454.097 79.5767 454.097 81.7623C454.097 83.948 452.477 85.4779 450.231 85.4779C447.985 85.4779 446.365 83.948 446.365 81.7623C446.365 79.5767 447.985 77.9999 450.231 77.9999Z" fill="black"/>
<path d="M261.476 82.1463L254.06 89.5715L265.497 101.042L254.002 112.572L261.395 120L272.913 108.468L284.368 119.918L291.784 112.492L261.476 82.1463Z" fill="#53B9FF"/>
<path d="M280.349 101.043L272.913 108.468L284.368 119.918L291.784 112.493L280.349 101.043Z" fill="#119EFF"/>
<path d="M280.349 101.043L272.913 108.468L275.775 111.314L280.349 101.043Z" fill="black" fill-opacity="0.2"/>
<path d="M290.483 90.9344L302.001 79.402L294.582 72L283.068 83.5092L271.611 72.0583L264.195 79.4836L294.503 109.83L301.919 102.404L290.483 90.9344Z" fill="#53B9FF"/>
<path d="M275.632 90.9347L283.068 83.5095L271.611 72.0586L264.195 79.4838L275.632 90.9347Z" fill="#119EFF"/>
<path d="M275.632 90.9344L283.067 83.5093L280.204 80.662L275.632 90.9344Z" fill="black" fill-opacity="0.2"/>
</svg>
