<svg width="760" height="192" viewBox="0 0 760 192" fill="none" xmlns="http://www.w3.org/2000/svg">
<rect width="760" height="192" rx="24" fill="white"/>
<path d="M201.32 74.5V46.5H222.48V51.7H207.8V74.5H201.32ZM207.32 64.3V59.1H220.76V64.3H207.32ZM234.999 74.82C233.212 74.82 231.612 74.4733 230.199 73.78C228.812 73.0867 227.732 72.0333 226.959 70.62C226.186 69.18 225.799 67.3533 225.799 65.14V52.98H232.039V64.22C232.039 66.0067 232.412 67.3267 233.159 68.18C233.932 69.0067 235.012 69.42 236.399 69.42C237.359 69.42 238.212 69.22 238.959 68.82C239.706 68.3933 240.292 67.7533 240.719 66.9C241.146 66.02 241.359 64.9267 241.359 63.62V52.98H247.599V74.5H241.679V68.58L242.759 70.3C242.039 71.7933 240.972 72.9267 239.559 73.7C238.172 74.4467 236.652 74.82 234.999 74.82ZM253.38 74.5V44.82H259.62V74.5H253.38ZM265.411 74.5V44.82H271.651V74.5H265.411ZM276.643 65.74V60.74H287.963V65.74H276.643ZM302.004 74.98C299.764 74.98 297.618 74.6867 295.564 74.1C293.511 73.4867 291.858 72.7 290.604 71.74L292.804 66.86C294.004 67.7133 295.418 68.42 297.044 68.98C298.698 69.5133 300.364 69.78 302.044 69.78C303.324 69.78 304.351 69.66 305.124 69.42C305.924 69.1533 306.511 68.7933 306.884 68.34C307.258 67.8867 307.444 67.3667 307.444 66.78C307.444 66.0333 307.151 65.4467 306.564 65.02C305.978 64.5667 305.204 64.2067 304.244 63.94C303.284 63.6467 302.218 63.38 301.044 63.14C299.898 62.8733 298.738 62.5533 297.564 62.18C296.418 61.8067 295.364 61.3267 294.404 60.74C293.444 60.1533 292.658 59.38 292.044 58.42C291.458 57.46 291.164 56.2333 291.164 54.74C291.164 53.14 291.591 51.6867 292.444 50.38C293.324 49.0467 294.631 47.9933 296.364 47.22C298.124 46.42 300.324 46.02 302.964 46.02C304.724 46.02 306.458 46.2333 308.164 46.66C309.871 47.06 311.378 47.6733 312.684 48.5L310.684 53.42C309.378 52.6733 308.071 52.1267 306.764 51.78C305.458 51.4067 304.178 51.22 302.924 51.22C301.671 51.22 300.644 51.3667 299.844 51.66C299.044 51.9533 298.471 52.34 298.124 52.82C297.778 53.2733 297.604 53.8067 297.604 54.42C297.604 55.14 297.898 55.7267 298.484 56.18C299.071 56.6067 299.844 56.9533 300.804 57.22C301.764 57.4867 302.818 57.7533 303.964 58.02C305.138 58.2867 306.298 58.5933 307.444 58.94C308.618 59.2867 309.684 59.7533 310.644 60.34C311.604 60.9267 312.378 61.7 312.964 62.66C313.578 63.62 313.884 64.8333 313.884 66.3C313.884 67.8733 313.444 69.3133 312.564 70.62C311.684 71.9267 310.364 72.98 308.604 73.78C306.871 74.58 304.671 74.98 302.004 74.98ZM326.672 74.82C324.139 74.82 322.166 74.18 320.752 72.9C319.339 71.5933 318.632 69.66 318.632 67.1V48.22H324.872V67.02C324.872 67.9267 325.112 68.6333 325.592 69.14C326.072 69.62 326.726 69.86 327.552 69.86C328.539 69.86 329.379 69.5933 330.072 69.06L331.752 73.46C331.112 73.9133 330.339 74.26 329.432 74.5C328.552 74.7133 327.632 74.82 326.672 74.82ZM315.312 57.78V52.98H330.232V57.78H315.312ZM347.752 74.5V70.3L347.352 69.38V61.86C347.352 60.5267 346.939 59.4867 346.112 58.74C345.312 57.9933 344.072 57.62 342.392 57.62C341.245 57.62 340.112 57.8067 338.992 58.18C337.899 58.5267 336.965 59.0067 336.192 59.62L333.952 55.26C335.125 54.4333 336.539 53.7933 338.192 53.34C339.845 52.8867 341.525 52.66 343.232 52.66C346.512 52.66 349.059 53.4333 350.872 54.98C352.685 56.5267 353.592 58.94 353.592 62.22V74.5H347.752ZM341.192 74.82C339.512 74.82 338.072 74.54 336.872 73.98C335.672 73.3933 334.752 72.6067 334.112 71.62C333.472 70.6333 333.152 69.5267 333.152 68.3C333.152 67.02 333.459 65.9 334.072 64.94C334.712 63.98 335.712 63.2333 337.072 62.7C338.432 62.14 340.205 61.86 342.392 61.86H348.112V65.5H343.072C341.605 65.5 340.592 65.74 340.032 66.22C339.499 66.7 339.232 67.3 339.232 68.02C339.232 68.82 339.539 69.46 340.152 69.94C340.792 70.3933 341.659 70.62 342.752 70.62C343.792 70.62 344.725 70.38 345.552 69.9C346.379 69.3933 346.979 68.66 347.352 67.7L348.312 70.58C347.859 71.9667 347.032 73.02 345.832 73.74C344.632 74.46 343.085 74.82 341.192 74.82ZM369.796 74.82C367.476 74.82 365.409 74.3533 363.596 73.42C361.782 72.46 360.356 71.14 359.316 69.46C358.302 67.78 357.796 65.8733 357.796 63.74C357.796 61.58 358.302 59.6733 359.316 58.02C360.356 56.34 361.782 55.0333 363.596 54.1C365.409 53.14 367.476 52.66 369.796 52.66C372.062 52.66 374.036 53.14 375.716 54.1C377.396 55.0333 378.636 56.38 379.436 58.14L374.596 60.74C374.036 59.7267 373.329 58.98 372.476 58.5C371.649 58.02 370.742 57.78 369.756 57.78C368.689 57.78 367.729 58.02 366.876 58.5C366.022 58.98 365.342 59.66 364.836 60.54C364.356 61.42 364.116 62.4867 364.116 63.74C364.116 64.9933 364.356 66.06 364.836 66.94C365.342 67.82 366.022 68.5 366.876 68.98C367.729 69.46 368.689 69.7 369.756 69.7C370.742 69.7 371.649 69.4733 372.476 69.02C373.329 68.54 374.036 67.78 374.596 66.74L379.436 69.38C378.636 71.1133 377.396 72.46 375.716 73.42C374.036 74.3533 372.062 74.82 369.796 74.82ZM388.071 70.1L388.231 62.5L398.271 52.98H405.711L396.071 62.78L392.831 65.42L388.071 70.1ZM382.911 74.5V44.82H389.151V74.5H382.911ZM398.951 74.5L391.671 65.46L395.591 60.62L406.511 74.5H398.951ZM430.09 74.98C427.85 74.98 425.704 74.6867 423.65 74.1C421.597 73.4867 419.944 72.7 418.69 71.74L420.89 66.86C422.09 67.7133 423.504 68.42 425.13 68.98C426.784 69.5133 428.45 69.78 430.13 69.78C431.41 69.78 432.437 69.66 433.21 69.42C434.01 69.1533 434.597 68.7933 434.97 68.34C435.344 67.8867 435.53 67.3667 435.53 66.78C435.53 66.0333 435.237 65.4467 434.65 65.02C434.064 64.5667 433.29 64.2067 432.33 63.94C431.37 63.6467 430.304 63.38 429.13 63.14C427.984 62.8733 426.824 62.5533 425.65 62.18C424.504 61.8067 423.45 61.3267 422.49 60.74C421.53 60.1533 420.744 59.38 420.13 58.42C419.544 57.46 419.25 56.2333 419.25 54.74C419.25 53.14 419.677 51.6867 420.53 50.38C421.41 49.0467 422.717 47.9933 424.45 47.22C426.21 46.42 428.41 46.02 431.05 46.02C432.81 46.02 434.544 46.2333 436.25 46.66C437.957 47.06 439.464 47.6733 440.77 48.5L438.77 53.42C437.464 52.6733 436.157 52.1267 434.85 51.78C433.544 51.4067 432.264 51.22 431.01 51.22C429.757 51.22 428.73 51.3667 427.93 51.66C427.13 51.9533 426.557 52.34 426.21 52.82C425.864 53.2733 425.69 53.8067 425.69 54.42C425.69 55.14 425.984 55.7267 426.57 56.18C427.157 56.6067 427.93 56.9533 428.89 57.22C429.85 57.4867 430.904 57.7533 432.05 58.02C433.224 58.2867 434.384 58.5933 435.53 58.94C436.704 59.2867 437.77 59.7533 438.73 60.34C439.69 60.9267 440.464 61.7 441.05 62.66C441.664 63.62 441.97 64.8333 441.97 66.3C441.97 67.8733 441.53 69.3133 440.65 70.62C439.77 71.9267 438.45 72.98 436.69 73.78C434.957 74.58 432.757 74.98 430.09 74.98ZM454.758 74.82C452.225 74.82 450.251 74.18 448.838 72.9C447.425 71.5933 446.718 69.66 446.718 67.1V48.22H452.958V67.02C452.958 67.9267 453.198 68.6333 453.678 69.14C454.158 69.62 454.811 69.86 455.638 69.86C456.625 69.86 457.465 69.5933 458.158 69.06L459.838 73.46C459.198 73.9133 458.425 74.26 457.518 74.5C456.638 74.7133 455.718 74.82 454.758 74.82ZM443.398 57.78V52.98H458.318V57.78H443.398ZM475.838 74.5V70.3L475.438 69.38V61.86C475.438 60.5267 475.024 59.4867 474.198 58.74C473.398 57.9933 472.158 57.62 470.478 57.62C469.331 57.62 468.198 57.8067 467.078 58.18C465.984 58.5267 465.051 59.0067 464.278 59.62L462.038 55.26C463.211 54.4333 464.624 53.7933 466.278 53.34C467.931 52.8867 469.611 52.66 471.318 52.66C474.598 52.66 477.144 53.4333 478.958 54.98C480.771 56.5267 481.678 58.94 481.678 62.22V74.5H475.838ZM469.278 74.82C467.598 74.82 466.158 74.54 464.958 73.98C463.758 73.3933 462.838 72.6067 462.198 71.62C461.558 70.6333 461.238 69.5267 461.238 68.3C461.238 67.02 461.544 65.9 462.158 64.94C462.798 63.98 463.798 63.2333 465.158 62.7C466.518 62.14 468.291 61.86 470.478 61.86H476.198V65.5H471.158C469.691 65.5 468.678 65.74 468.118 66.22C467.584 66.7 467.318 67.3 467.318 68.02C467.318 68.82 467.624 69.46 468.238 69.94C468.878 70.3933 469.744 70.62 470.838 70.62C471.878 70.62 472.811 70.38 473.638 69.9C474.464 69.3933 475.064 68.66 475.438 67.7L476.398 70.58C475.944 71.9667 475.118 73.02 473.918 73.74C472.718 74.46 471.171 74.82 469.278 74.82ZM487.325 74.5V52.98H493.285V59.06L492.445 57.3C493.085 55.78 494.112 54.6333 495.525 53.86C496.939 53.06 498.659 52.66 500.685 52.66V58.42C500.419 58.3933 500.179 58.38 499.965 58.38C499.752 58.3533 499.525 58.34 499.285 58.34C497.579 58.34 496.192 58.8333 495.125 59.82C494.085 60.78 493.565 62.2867 493.565 64.34V74.5H487.325ZM513.938 74.82C511.404 74.82 509.431 74.18 508.018 72.9C506.604 71.5933 505.898 69.66 505.898 67.1V48.22H512.138V67.02C512.138 67.9267 512.378 68.6333 512.858 69.14C513.338 69.62 513.991 69.86 514.818 69.86C515.804 69.86 516.644 69.5933 517.338 69.06L519.018 73.46C518.378 73.9133 517.604 74.26 516.698 74.5C515.818 74.7133 514.898 74.82 513.938 74.82ZM502.578 57.78V52.98H517.498V57.78H502.578ZM532.537 74.82C530.083 74.82 527.923 74.34 526.057 73.38C524.217 72.42 522.79 71.1133 521.777 69.46C520.763 67.78 520.257 65.8733 520.257 63.74C520.257 61.58 520.75 59.6733 521.737 58.02C522.75 56.34 524.123 55.0333 525.857 54.1C527.59 53.14 529.55 52.66 531.737 52.66C533.843 52.66 535.737 53.1133 537.417 54.02C539.123 54.9 540.47 56.18 541.457 57.86C542.443 59.5133 542.937 61.5 542.937 63.82C542.937 64.06 542.923 64.34 542.897 64.66C542.87 64.9533 542.843 65.2333 542.817 65.5H525.337V61.86H539.537L537.137 62.94C537.137 61.82 536.91 60.8467 536.457 60.02C536.003 59.1933 535.377 58.5533 534.577 58.1C533.777 57.62 532.843 57.38 531.777 57.38C530.71 57.38 529.763 57.62 528.937 58.1C528.137 58.5533 527.51 59.2067 527.057 60.06C526.603 60.8867 526.377 61.8733 526.377 63.02V63.98C526.377 65.1533 526.63 66.1933 527.137 67.1C527.67 67.98 528.403 68.66 529.337 69.14C530.297 69.5933 531.417 69.82 532.697 69.82C533.843 69.82 534.843 69.6467 535.697 69.3C536.577 68.9533 537.377 68.4333 538.097 67.74L541.417 71.34C540.43 72.46 539.19 73.3267 537.697 73.94C536.203 74.5267 534.483 74.82 532.537 74.82ZM547.091 74.5V52.98H553.051V59.06L552.211 57.3C552.851 55.78 553.878 54.6333 555.291 53.86C556.704 53.06 558.424 52.66 560.451 52.66V58.42C560.184 58.3933 559.944 58.38 559.731 58.38C559.518 58.3533 559.291 58.34 559.051 58.34C557.344 58.34 555.958 58.8333 554.891 59.82C553.851 60.78 553.331 62.2867 553.331 64.34V74.5H547.091Z" fill="black"/>
<path d="M209.943 124.283C209.853 124.184 209.757 124.086 209.66 123.993C209.564 123.9 209.474 123.796 209.378 123.703C209.282 123.61 209.191 123.506 209.095 123.413C208.999 123.32 208.909 123.216 208.813 123.123C208.716 123.03 208.626 122.925 208.53 122.833C208.434 122.74 208.343 122.636 208.247 122.543C208.151 122.45 208.061 122.345 207.965 122.253C210.768 125.08 212.375 128.927 212.436 132.961C212.436 142.573 202.928 150.393 191.239 150.393C184.693 150.393 178.837 147.939 174.943 144.093L175.225 144.383L175.508 144.673L175.79 144.963L176.073 145.254L176.356 145.544L176.638 145.834L176.921 146.124C180.81 150.132 186.796 152.714 193.5 152.714C205.189 152.714 214.697 144.894 214.697 135.311C214.697 131.215 212.979 127.334 209.943 124.283Z" fill="black"/>
<path d="M211.023 132.961C211.023 141.785 202.165 148.937 191.239 148.937C180.312 148.937 171.455 141.785 171.455 132.961C171.455 127.491 174.846 122.659 180.058 119.793C185.27 116.927 188.514 113.992 191.239 113.992C193.963 113.992 196.292 116.388 202.42 119.793C207.631 122.659 211.023 127.491 211.023 132.961Z" fill="#FBF0DF"/>
<path d="M211.023 132.961C211.02 131.828 210.868 130.7 210.571 129.608C209.027 148.925 186.067 149.854 177.04 144.076C181.098 147.304 186.105 149.018 191.239 148.937C202.148 148.937 211.023 141.773 211.023 132.961Z" fill="#F6DECE"/>
<path d="M183.625 118.731C186.152 117.177 189.509 114.259 192.81 114.253C192.302 114.085 191.772 113.997 191.239 113.992C189.871 113.992 188.413 114.717 186.575 115.808C185.937 116.191 185.275 116.614 184.574 117.055C183.257 117.89 181.748 118.836 180.052 119.781C174.671 122.769 171.455 127.694 171.455 132.961C171.455 133.193 171.455 133.425 171.455 133.652C174.88 121.232 181.104 120.286 183.625 118.731Z" fill="#FFFEFC"/>
<path fill-rule="evenodd" clip-rule="evenodd" d="M189.611 115.46C189.619 116.829 189.339 118.185 188.789 119.433C188.24 120.682 187.435 121.794 186.428 122.694C186.27 122.839 186.395 123.117 186.598 123.036C188.503 122.276 191.075 120.002 189.99 115.413C189.944 115.152 189.611 115.222 189.611 115.46ZM190.894 115.46C191.586 116.618 192.025 117.916 192.182 119.264C192.339 120.613 192.21 121.981 191.804 123.274C191.736 123.477 191.979 123.651 192.115 123.482C193.353 121.858 194.432 118.633 191.199 115.152C191.035 115.001 190.781 115.233 190.894 115.436V115.46ZM192.454 115.361C193.537 116.148 194.443 117.164 195.111 118.341C195.779 119.518 196.193 120.828 196.326 122.183C196.32 122.232 196.333 122.281 196.362 122.32C196.391 122.36 196.433 122.386 196.48 122.395C196.527 122.403 196.576 122.392 196.616 122.364C196.655 122.337 196.683 122.295 196.694 122.247C197.214 120.222 196.92 116.771 192.641 114.978C192.415 114.885 192.268 115.199 192.454 115.338V115.361ZM182.02 121.394C183.308 120.999 184.501 120.33 185.52 119.43C186.54 118.531 187.364 117.421 187.938 116.173C188.04 115.964 188.362 116.046 188.311 116.278C187.333 120.918 184.06 121.887 182.025 121.76C181.81 121.765 181.816 121.458 182.02 121.394Z" fill="#CCBEA7"/>
<path d="M191.239 150.393C179.549 150.393 170.042 142.573 170.042 132.961C170.042 127.16 173.535 121.748 179.385 118.505C181.081 117.577 182.534 116.643 183.828 115.825C184.541 115.373 185.213 114.949 185.863 114.555C187.847 113.348 189.543 112.542 191.239 112.542C192.935 112.542 194.416 113.238 196.27 114.363C196.835 114.694 197.4 115.054 198.005 115.448C199.412 116.341 201.001 117.351 203.092 118.505C208.943 121.748 212.436 127.154 212.436 132.961C212.436 142.573 202.928 150.393 191.239 150.393ZM191.239 113.992C189.871 113.992 188.413 114.717 186.575 115.808C185.937 116.191 185.275 116.614 184.574 117.055C183.257 117.89 181.748 118.836 180.052 119.781C174.671 122.769 171.455 127.694 171.455 132.961C171.455 141.773 180.329 148.943 191.239 148.943C202.148 148.943 211.023 141.773 211.023 132.961C211.023 127.694 207.806 122.769 202.42 119.793C200.283 118.633 198.615 117.542 197.264 116.684C196.648 116.295 196.083 115.935 195.569 115.616C193.856 114.572 192.607 113.992 191.239 113.992Z" fill="black"/>
<path d="M195.224 137.196C194.97 138.263 194.392 139.22 193.573 139.928C192.959 140.54 192.163 140.923 191.312 141.019C190.436 140.939 189.612 140.554 188.978 139.928C188.168 139.217 187.598 138.26 187.35 137.196C187.342 137.133 187.348 137.068 187.367 137.008C187.387 136.948 187.42 136.893 187.464 136.847C187.507 136.802 187.561 136.767 187.619 136.746C187.678 136.725 187.74 136.718 187.802 136.726H194.777C194.839 136.719 194.9 136.727 194.958 136.748C195.016 136.77 195.069 136.805 195.112 136.85C195.155 136.895 195.187 136.95 195.207 137.01C195.226 137.07 195.232 137.133 195.224 137.196Z" fill="#B71422"/>
<path d="M188.978 139.975C189.611 140.601 190.432 140.989 191.307 141.077C192.18 140.988 192.998 140.599 193.63 139.975C193.832 139.781 194.021 139.574 194.195 139.354C193.847 138.949 193.421 138.62 192.945 138.39C192.469 138.16 191.952 138.032 191.425 138.014C190.862 138.028 190.311 138.182 189.818 138.462C189.326 138.743 188.908 139.143 188.599 139.627C188.729 139.748 188.842 139.864 188.978 139.975Z" fill="#FF6164"/>
<path d="M189.068 139.516C189.348 139.145 189.707 138.843 190.117 138.634C190.528 138.425 190.979 138.314 191.437 138.31C192.283 138.335 193.09 138.685 193.698 139.29C193.828 139.145 193.952 138.994 194.071 138.843C193.352 138.141 192.401 137.741 191.408 137.724C190.878 137.729 190.355 137.854 189.877 138.09C189.399 138.327 188.978 138.669 188.644 139.093C188.778 139.242 188.92 139.383 189.068 139.516Z" fill="black"/>
<path d="M191.29 141.367C190.348 141.282 189.461 140.873 188.774 140.207C187.899 139.447 187.283 138.421 187.016 137.277C186.997 137.175 187.001 137.07 187.026 136.97C187.051 136.87 187.098 136.776 187.163 136.697C187.241 136.601 187.339 136.524 187.449 136.473C187.56 136.422 187.681 136.397 187.802 136.401H194.777C194.899 136.399 195.019 136.424 195.129 136.475C195.24 136.526 195.338 136.602 195.416 136.697C195.481 136.777 195.527 136.87 195.551 136.971C195.576 137.071 195.578 137.176 195.557 137.277C195.29 138.421 194.674 139.447 193.799 140.207C193.114 140.872 192.23 141.281 191.29 141.367ZM187.802 137.074C187.712 137.074 187.689 137.115 187.683 137.126C187.922 138.118 188.463 139.006 189.227 139.661C189.785 140.226 190.511 140.583 191.29 140.677C192.066 140.584 192.792 140.232 193.353 139.673C194.114 139.017 194.653 138.129 194.89 137.138C194.878 137.119 194.861 137.105 194.841 137.096C194.821 137.086 194.799 137.083 194.777 137.086L187.802 137.074Z" fill="black"/>
<path d="M199.842 137.556C201.668 137.556 203.149 136.662 203.149 135.56C203.149 134.458 201.668 133.564 199.842 133.564C198.016 133.564 196.535 134.458 196.535 135.56C196.535 136.662 198.016 137.556 199.842 137.556Z" fill="#FEBBD0"/>
<path d="M182.732 137.556C184.558 137.556 186.039 136.662 186.039 135.56C186.039 134.458 184.558 133.564 182.732 133.564C180.906 133.564 179.425 134.458 179.425 135.56C179.425 136.662 180.906 137.556 182.732 137.556Z" fill="#FEBBD0"/>
<path fill-rule="evenodd" clip-rule="evenodd" d="M184.286 134.76C184.902 134.761 185.505 134.574 186.018 134.224C186.531 133.873 186.931 133.374 187.168 132.79C187.404 132.206 187.467 131.564 187.347 130.943C187.228 130.323 186.932 129.753 186.496 129.305C186.061 128.858 185.506 128.553 184.902 128.429C184.297 128.305 183.671 128.368 183.101 128.61C182.532 128.851 182.045 129.261 181.703 129.787C181.36 130.313 181.177 130.931 181.177 131.563C181.177 132.41 181.505 133.222 182.088 133.821C182.67 134.421 183.461 134.758 184.286 134.76ZM198.288 134.76C198.905 134.764 199.509 134.581 200.024 134.232C200.539 133.884 200.942 133.386 201.181 132.803C201.42 132.219 201.485 131.576 201.368 130.954C201.25 130.332 200.955 129.761 200.521 129.311C200.086 128.862 199.531 128.555 198.926 128.43C198.321 128.305 197.694 128.367 197.124 128.608C196.553 128.849 196.065 129.259 195.722 129.785C195.379 130.311 195.196 130.93 195.196 131.563C195.194 132.407 195.519 133.218 196.098 133.817C196.678 134.416 197.465 134.755 198.288 134.76Z" fill="black"/>
<path fill-rule="evenodd" clip-rule="evenodd" d="M183.325 131.766C183.557 131.767 183.784 131.698 183.977 131.567C184.17 131.435 184.321 131.248 184.41 131.029C184.5 130.81 184.524 130.568 184.479 130.335C184.435 130.101 184.324 129.887 184.16 129.718C183.997 129.55 183.788 129.435 183.561 129.388C183.334 129.341 183.099 129.365 182.884 129.455C182.67 129.546 182.487 129.7 182.358 129.898C182.23 130.095 182.161 130.328 182.161 130.565C182.161 130.883 182.283 131.187 182.502 131.412C182.72 131.638 183.016 131.765 183.325 131.766ZM197.327 131.766C197.558 131.767 197.785 131.698 197.978 131.567C198.171 131.435 198.322 131.248 198.412 131.029C198.501 130.81 198.525 130.568 198.481 130.335C198.436 130.101 198.325 129.887 198.162 129.718C197.998 129.55 197.79 129.435 197.563 129.388C197.336 129.341 197.1 129.365 196.886 129.455C196.672 129.546 196.489 129.7 196.36 129.898C196.231 130.095 196.162 130.328 196.162 130.565C196.162 130.881 196.283 131.184 196.499 131.408C196.715 131.633 197.008 131.762 197.315 131.766H197.327Z" fill="white"/>
<g clip-path="url(#clip0_0_3)">
<path d="M311.034 115.572L289.173 154.664C288.722 155.471 287.562 155.476 287.104 154.672L264.809 115.576C264.31 114.701 265.059 113.641 266.051 113.818L287.935 117.73C288.075 117.755 288.218 117.754 288.357 117.729L309.784 113.823C310.773 113.643 311.525 114.695 311.034 115.572Z" fill="url(#paint0_linear_0_3)"/>
<path d="M298.36 108.687L282.182 111.857C281.916 111.909 281.719 112.134 281.703 112.405L280.708 129.212C280.685 129.608 281.048 129.916 281.435 129.826L285.939 128.787C286.36 128.69 286.741 129.061 286.654 129.485L285.316 136.038C285.226 136.479 285.64 136.856 286.071 136.725L288.853 135.88C289.284 135.749 289.699 136.127 289.607 136.568L287.481 146.861C287.348 147.505 288.204 147.856 288.561 147.304L288.8 146.936L301.982 120.627C302.203 120.187 301.823 119.685 301.339 119.778L296.702 120.673C296.267 120.757 295.896 120.351 296.019 119.925L299.045 109.435C299.168 109.008 298.796 108.602 298.36 108.687Z" fill="url(#paint1_linear_0_3)"/>
</g>
<g clip-path="url(#clip1_0_3)">
<path d="M382.744 136.507C384.957 136.507 386.751 134.713 386.751 132.5C386.751 130.287 384.957 128.493 382.744 128.493C380.531 128.493 378.737 130.287 378.737 132.5C378.737 134.713 380.531 136.507 382.744 136.507Z" fill="#61DAFB"/>
<path d="M382.744 140.71C394.619 140.71 404.246 137.034 404.246 132.5C404.246 127.966 394.619 124.29 382.744 124.29C370.869 124.29 361.242 127.966 361.242 132.5C361.242 137.034 370.869 140.71 382.744 140.71Z" stroke="#61DAFB" stroke-width="1.9547"/>
<path d="M375.634 136.605C381.572 146.889 389.568 153.388 393.495 151.121C397.422 148.854 395.792 138.679 389.854 128.395C383.917 118.111 375.92 111.612 371.993 113.879C368.067 116.146 369.697 126.321 375.634 136.605Z" stroke="#61DAFB" stroke-width="1.9547"/>
<path d="M375.634 128.395C369.697 138.679 368.067 148.854 371.993 151.121C375.92 153.388 383.916 146.889 389.854 136.605C395.792 126.321 397.422 116.146 393.495 113.879C389.568 111.612 381.572 118.111 375.634 128.395Z" stroke="#61DAFB" stroke-width="1.9547"/>
</g>
<g clip-path="url(#clip2_0_3)">
<path d="M458.611 120.745L462.04 125.153C462.04 125.153 466.448 116.337 472.815 108.5C481.142 118.296 490.448 132.01 490.448 139.847C490.448 149.643 481.142 156.5 472.325 156.5C461.55 156.5 453.223 148.173 453.223 138.378C453.223 135.439 454.693 126.622 458.611 120.745Z" fill="url(#paint2_linear_0_3)"/>
<path d="M472.325 118.786C495.346 143.765 479.182 151.112 472.325 151.112C466.938 151.112 447.346 145.724 472.325 118.786Z" fill="#FF9955"/>
</g>
<g clip-path="url(#clip3_0_3)">
<mask id="mask0_0_3" style="mask-type:luminance" maskUnits="userSpaceOnUse" x="538" y="116" width="55" height="33">
<path d="M538.448 116H592.448V148.4H538.448V116Z" fill="white"/>
</mask>
<g mask="url(#mask0_0_3)">
<path fill-rule="evenodd" clip-rule="evenodd" d="M565.448 116C558.248 116 553.748 119.6 551.948 126.8C554.648 123.2 557.798 121.85 561.398 122.75C563.452 123.263 564.92 124.754 566.545 126.403C569.192 129.09 572.256 132.2 578.948 132.2C586.148 132.2 590.648 128.6 592.448 121.4C589.748 125 586.598 126.35 582.998 125.45C580.944 124.937 579.476 123.446 577.851 121.797C575.204 119.11 572.14 116 565.448 116ZM551.948 132.2C544.748 132.2 540.248 135.8 538.448 143C541.148 139.4 544.298 138.05 547.898 138.95C549.952 139.464 551.42 140.954 553.045 142.603C555.692 145.29 558.756 148.4 565.448 148.4C572.648 148.4 577.148 144.8 578.948 137.6C576.248 141.2 573.098 142.55 569.498 141.65C567.444 141.137 565.976 139.646 564.351 137.997C561.704 135.31 558.64 132.2 551.948 132.2Z" fill="#38BDF8"/>
</g>
</g>
<defs>
<linearGradient id="paint0_linear_0_3" x1="264.265" y1="112.421" x2="291.473" y2="149.371" gradientUnits="userSpaceOnUse">
<stop stop-color="#41D1FF"/>
<stop offset="1" stop-color="#BD34FE"/>
</linearGradient>
<linearGradient id="paint1_linear_0_3" x1="286.679" y1="109.548" x2="291.601" y2="143.311" gradientUnits="userSpaceOnUse">
<stop stop-color="#FFEA83"/>
<stop offset="0.0833333" stop-color="#FFDD35"/>
<stop offset="1" stop-color="#FFA800"/>
</linearGradient>
<linearGradient id="paint2_linear_0_3" x1="453.223" y1="108.5" x2="453.223" y2="4908.5" gradientUnits="userSpaceOnUse">
<stop stop-color="#FF8844"/>
<stop offset="1" stop-color="#FF3300"/>
</linearGradient>
<clipPath id="clip0_0_3">
<rect width="48.7129" height="48" fill="white" transform="translate(263.552 108.5)"/>
</clipPath>
<clipPath id="clip1_0_3">
<rect width="44.9581" height="40" fill="white" transform="translate(360.265 112.5)"/>
</clipPath>
<clipPath id="clip2_0_3">
<rect width="37.2245" height="48" fill="white" transform="translate(453.223 108.5)"/>
</clipPath>
<clipPath id="clip3_0_3">
<rect width="54" height="33" fill="white" transform="translate(538.448 116)"/>
</clipPath>
</defs>
</svg>
